<mxfile host="app.diagrams.net" agent="Mozilla/5.0 (Macintosh; Intel Mac OS X 10_15_7) AppleWebKit/605.1.15 (KHTML, like Gecko) Version/17.3.1 Safari/605.1.15" version="24.7.17">
  <diagram name="Page-1" id="WbqONFyfZuqG_mHFHVYY">
    <mxGraphModel dx="705" dy="483" grid="1" gridSize="10" guides="1" tooltips="1" connect="1" arrows="1" fold="1" page="1" pageScale="1" pageWidth="827" pageHeight="1169" math="0" shadow="0">
      <root>
        <mxCell id="0" />
        <mxCell id="1" parent="0" />
        <mxCell id="vtLrNd0-KwnswL1Z69CQ-38" value="" style="rounded=0;whiteSpace=wrap;html=1;fillColor=none;" parent="1" vertex="1">
          <mxGeometry x="40" y="35" width="680" height="390" as="geometry" />
        </mxCell>
        <mxCell id="vtLrNd0-KwnswL1Z69CQ-1" value="" style="whiteSpace=wrap;html=1;aspect=fixed;" parent="1" vertex="1">
          <mxGeometry x="79" y="140" width="240" height="240" as="geometry" />
        </mxCell>
        <mxCell id="vtLrNd0-KwnswL1Z69CQ-4" value="Preview" style="text;html=1;align=center;verticalAlign=middle;whiteSpace=wrap;rounded=0;fontStyle=1;fontSize=24;" parent="1" vertex="1">
          <mxGeometry x="144" y="90" width="110" height="30" as="geometry" />
        </mxCell>
        <mxCell id="vtLrNd0-KwnswL1Z69CQ-5" value="" style="endArrow=none;html=1;rounded=0;entryX=0;entryY=0;entryDx=0;entryDy=0;exitX=1;exitY=1;exitDx=0;exitDy=0;" parent="1" source="vtLrNd0-KwnswL1Z69CQ-1" target="vtLrNd0-KwnswL1Z69CQ-1" edge="1">
          <mxGeometry width="50" height="50" relative="1" as="geometry">
            <mxPoint x="390" y="370" as="sourcePoint" />
            <mxPoint x="440" y="320" as="targetPoint" />
          </mxGeometry>
        </mxCell>
        <mxCell id="vtLrNd0-KwnswL1Z69CQ-6" value="" style="endArrow=none;html=1;rounded=0;" parent="1" edge="1">
          <mxGeometry width="50" height="50" relative="1" as="geometry">
            <mxPoint x="360" y="400" as="sourcePoint" />
            <mxPoint x="360" y="80" as="targetPoint" />
          </mxGeometry>
        </mxCell>
        <mxCell id="vtLrNd0-KwnswL1Z69CQ-7" value="Apply effects" style="text;html=1;align=center;verticalAlign=middle;whiteSpace=wrap;rounded=0;fontStyle=1;fontSize=24;" parent="1" vertex="1">
          <mxGeometry x="450" y="90" width="170" height="30" as="geometry" />
        </mxCell>
        <mxCell id="vtLrNd0-KwnswL1Z69CQ-12" value="" style="group" parent="1" vertex="1" connectable="0">
          <mxGeometry x="400" y="215" width="290" height="30" as="geometry" />
        </mxCell>
        <mxCell id="vtLrNd0-KwnswL1Z69CQ-9" value="" style="rounded=1;whiteSpace=wrap;html=1;" parent="vtLrNd0-KwnswL1Z69CQ-12" vertex="1">
          <mxGeometry x="55" y="2.5" width="160" height="25" as="geometry" />
        </mxCell>
        <mxCell id="vtLrNd0-KwnswL1Z69CQ-10" value="Top text" style="text;html=1;align=left;verticalAlign=middle;whiteSpace=wrap;rounded=0;" parent="vtLrNd0-KwnswL1Z69CQ-12" vertex="1">
          <mxGeometry width="50" height="30" as="geometry" />
        </mxCell>
        <mxCell id="vtLrNd0-KwnswL1Z69CQ-11" value="Apply" style="text;html=1;align=center;verticalAlign=middle;whiteSpace=wrap;rounded=1;strokeColor=default;" parent="vtLrNd0-KwnswL1Z69CQ-12" vertex="1">
          <mxGeometry x="230" width="60" height="30" as="geometry" />
        </mxCell>
        <mxCell id="vtLrNd0-KwnswL1Z69CQ-21" value="" style="group;align=left;" parent="1" vertex="1" connectable="0">
          <mxGeometry x="400" y="175" width="290" height="30" as="geometry" />
        </mxCell>
        <mxCell id="vtLrNd0-KwnswL1Z69CQ-22" value="" style="rounded=1;whiteSpace=wrap;html=1;" parent="vtLrNd0-KwnswL1Z69CQ-21" vertex="1">
          <mxGeometry x="55" y="2.5" width="160" height="25" as="geometry" />
        </mxCell>
        <mxCell id="vtLrNd0-KwnswL1Z69CQ-23" value="Image URL" style="text;html=1;align=left;verticalAlign=middle;whiteSpace=wrap;rounded=0;" parent="vtLrNd0-KwnswL1Z69CQ-21" vertex="1">
          <mxGeometry width="50" height="30" as="geometry" />
        </mxCell>
        <mxCell id="vtLrNd0-KwnswL1Z69CQ-24" value="Load" style="text;html=1;align=center;verticalAlign=middle;whiteSpace=wrap;rounded=1;strokeColor=default;" parent="vtLrNd0-KwnswL1Z69CQ-21" vertex="1">
          <mxGeometry x="230" width="60" height="30" as="geometry" />
        </mxCell>
        <mxCell id="vtLrNd0-KwnswL1Z69CQ-31" value="" style="group" parent="1" vertex="1" connectable="0">
          <mxGeometry x="400" y="255" width="290" height="30" as="geometry" />
        </mxCell>
        <mxCell id="vtLrNd0-KwnswL1Z69CQ-25" value="" style="endArrow=none;html=1;rounded=0;" parent="vtLrNd0-KwnswL1Z69CQ-31" source="vtLrNd0-KwnswL1Z69CQ-29" edge="1">
          <mxGeometry width="50" height="50" relative="1" as="geometry">
            <mxPoint x="70" y="15" as="sourcePoint" />
            <mxPoint x="200" y="15" as="targetPoint" />
          </mxGeometry>
        </mxCell>
        <mxCell id="vtLrNd0-KwnswL1Z69CQ-30" value="" style="endArrow=none;html=1;rounded=0;" parent="vtLrNd0-KwnswL1Z69CQ-31" target="vtLrNd0-KwnswL1Z69CQ-29" edge="1">
          <mxGeometry width="50" height="50" relative="1" as="geometry">
            <mxPoint x="70" y="15" as="sourcePoint" />
            <mxPoint x="200" y="15" as="targetPoint" />
          </mxGeometry>
        </mxCell>
        <mxCell id="vtLrNd0-KwnswL1Z69CQ-29" value="" style="ellipse;whiteSpace=wrap;html=1;aspect=fixed;fillColor=#000000;" parent="vtLrNd0-KwnswL1Z69CQ-31" vertex="1">
          <mxGeometry x="110" y="10" width="10" height="10" as="geometry" />
        </mxCell>
        <mxCell id="vtLrNd0-KwnswL1Z69CQ-19" value="Blur filter" style="text;html=1;align=left;verticalAlign=middle;whiteSpace=wrap;rounded=0;" parent="vtLrNd0-KwnswL1Z69CQ-31" vertex="1">
          <mxGeometry width="50" height="30" as="geometry" />
        </mxCell>
        <mxCell id="vtLrNd0-KwnswL1Z69CQ-20" value="Apply" style="text;html=1;align=center;verticalAlign=middle;whiteSpace=wrap;rounded=1;strokeColor=default;" parent="vtLrNd0-KwnswL1Z69CQ-31" vertex="1">
          <mxGeometry x="230" width="60" height="30" as="geometry" />
        </mxCell>
        <mxCell id="vtLrNd0-KwnswL1Z69CQ-27" value="0" style="text;html=1;align=center;verticalAlign=middle;whiteSpace=wrap;rounded=0;fontSize=12;" parent="vtLrNd0-KwnswL1Z69CQ-31" vertex="1">
          <mxGeometry x="59" y="9" width="10" height="10" as="geometry" />
        </mxCell>
        <mxCell id="vtLrNd0-KwnswL1Z69CQ-28" value="100" style="text;html=1;align=center;verticalAlign=middle;whiteSpace=wrap;rounded=0;fontSize=10;" parent="vtLrNd0-KwnswL1Z69CQ-31" vertex="1">
          <mxGeometry x="205" y="9" width="10" height="10" as="geometry" />
        </mxCell>
        <mxCell id="vtLrNd0-KwnswL1Z69CQ-32" value="" style="group;align=left;" parent="1" vertex="1" connectable="0">
          <mxGeometry x="400" y="295" width="290" height="30" as="geometry" />
        </mxCell>
        <mxCell id="vtLrNd0-KwnswL1Z69CQ-34" value="Edge detection" style="text;html=1;align=left;verticalAlign=middle;whiteSpace=wrap;rounded=0;" parent="vtLrNd0-KwnswL1Z69CQ-32" vertex="1">
          <mxGeometry width="50" height="30" as="geometry" />
        </mxCell>
        <mxCell id="vtLrNd0-KwnswL1Z69CQ-35" value="Apply" style="text;html=1;align=center;verticalAlign=middle;whiteSpace=wrap;rounded=1;strokeColor=default;" parent="vtLrNd0-KwnswL1Z69CQ-32" vertex="1">
          <mxGeometry x="230" width="60" height="30" as="geometry" />
        </mxCell>
        <mxCell id="vtLrNd0-KwnswL1Z69CQ-36" value="Undo" style="text;html=1;align=center;verticalAlign=middle;whiteSpace=wrap;rounded=1;strokeColor=default;" parent="1" vertex="1">
          <mxGeometry x="490" y="140" width="40" height="20" as="geometry" />
        </mxCell>
        <mxCell id="vtLrNd0-KwnswL1Z69CQ-37" value="Redo" style="text;html=1;align=center;verticalAlign=middle;whiteSpace=wrap;rounded=1;strokeColor=default;" parent="1" vertex="1">
          <mxGeometry x="540" y="140" width="40" height="20" as="geometry" />
        </mxCell>
        <mxCell id="vtLrNd0-KwnswL1Z69CQ-39" value="" style="endArrow=none;html=1;rounded=0;entryX=1;entryY=0;entryDx=0;entryDy=0;exitX=0;exitY=1;exitDx=0;exitDy=0;" parent="1" source="vtLrNd0-KwnswL1Z69CQ-1" target="vtLrNd0-KwnswL1Z69CQ-1" edge="1">
          <mxGeometry width="50" height="50" relative="1" as="geometry">
            <mxPoint x="370" y="250" as="sourcePoint" />
            <mxPoint x="420" y="200" as="targetPoint" />
          </mxGeometry>
        </mxCell>
      </root>
    </mxGraphModel>
  </diagram>
</mxfile>
